<svg width="930" height="250" viewBox="0 0 930 250" fill="none" xmlns="http://www.w3.org/2000/svg">
<path d="M219 180.5C219 201.211 202.211 218 181.5 218V218C160.789 218 144 201.211 144 180.5V96.7959C144 61.0101 173.01 32 208.796 32V32C214.431 32 219 36.5685 219 42.2041V180.5Z" fill="#0066FF"/>
<path d="M49 69.5C49 48.7893 65.7893 32 86.5 32V32C107.211 32 124 48.7893 124 69.5V153.204C124 188.99 94.9899 218 59.2041 218V218C53.5685 218 49 213.431 49 207.796V69.5Z" fill="#0066FF"/>
<path d="M332.264 79.562V94.365H307.898V171H289.558V94.365H265.192V79.562H332.264ZM386.517 97.378C392.019 97.378 396.91 98.6007 401.189 101.046C405.469 103.404 408.787 106.941 411.145 111.657C413.591 116.286 414.813 121.875 414.813 128.425V171H396.473V130.914C396.473 125.15 395.032 120.74 392.15 117.683C389.268 114.539 385.338 112.967 380.36 112.967C375.295 112.967 371.278 114.539 368.308 117.683C365.426 120.74 363.985 125.15 363.985 130.914V171H345.645V74.06H363.985V107.465C366.343 104.321 369.487 101.876 373.417 100.129C377.347 98.295 381.714 97.378 386.517 97.378ZM499.719 133.141C499.719 135.761 499.544 138.119 499.195 140.215H446.14C446.577 145.455 448.411 149.56 451.642 152.529C454.873 155.498 458.847 156.983 463.563 156.983C470.375 156.983 475.222 154.057 478.104 148.206H497.885C495.789 155.193 491.772 160.957 485.833 165.498C479.894 169.952 472.602 172.179 463.956 172.179C456.969 172.179 450.681 170.651 445.092 167.594C439.59 164.45 435.267 160.04 432.123 154.363C429.066 148.686 427.538 142.136 427.538 134.713C427.538 127.202 429.066 120.609 432.123 114.932C435.18 109.255 439.459 104.889 444.961 101.832C450.463 98.7753 456.795 97.247 463.956 97.247C470.855 97.247 477.012 98.7317 482.427 101.701C487.929 104.67 492.165 108.906 495.134 114.408C498.191 119.823 499.719 126.067 499.719 133.141ZM480.724 127.901C480.637 123.185 478.934 119.43 475.615 116.635C472.296 113.753 468.235 112.312 463.432 112.312C458.891 112.312 455.048 113.709 451.904 116.504C448.847 119.211 446.97 123.01 446.271 127.901H480.724ZM622.527 171H604.187L562.66 108.251V171H544.32V79.431H562.66L604.187 142.311V79.431H622.527V171ZM708.116 133.141C708.116 135.761 707.942 138.119 707.592 140.215H654.537C654.974 145.455 656.808 149.56 660.039 152.529C663.271 155.498 667.244 156.983 671.96 156.983C678.772 156.983 683.619 154.057 686.501 148.206H706.282C704.186 155.193 700.169 160.957 694.23 165.498C688.292 169.952 680.999 172.179 672.353 172.179C665.367 172.179 659.079 170.651 653.489 167.594C647.987 164.45 643.664 160.04 640.52 154.363C637.464 148.686 635.935 142.136 635.935 134.713C635.935 127.202 637.464 120.609 640.52 114.932C643.577 109.255 647.856 104.889 653.358 101.832C658.86 98.7753 665.192 97.247 672.353 97.247C679.253 97.247 685.41 98.7317 690.824 101.701C696.326 104.67 700.562 108.906 703.531 114.408C706.588 119.823 708.116 126.067 708.116 133.141ZM689.121 127.901C689.034 123.185 687.331 119.43 684.012 116.635C680.694 113.753 676.633 112.312 671.829 112.312C667.288 112.312 663.445 113.709 660.301 116.504C657.245 119.211 655.367 123.01 654.668 127.901H689.121ZM742.856 113.491V148.599C742.856 151.044 743.424 152.835 744.559 153.97C745.782 155.018 747.79 155.542 750.585 155.542H759.1V171H747.572C732.114 171 724.385 163.489 724.385 148.468V113.491H715.739V98.426H724.385V80.479H742.856V98.426H759.1V113.491H742.856ZM790.631 74.06V171H772.291V74.06H790.631ZM878.181 98.426L833.248 205.322H813.729L829.449 169.166L800.367 98.426H820.934L839.667 149.123L858.662 98.426H878.181Z" fill="#0066FF"/>
</svg>
